<svg width="40" height="40" viewBox="0 0 40 40" fill="none" xmlns="http://www.w3.org/2000/svg">
<g filter="url(#filter0_b_29_1011)">
<rect width="40" height="40" rx="20" fill="#565E58" fill-opacity="0.2"/>
<rect x="4" y="4" width="32" height="32" rx="16" fill="#353F37"/>
<path fill-rule="evenodd" clip-rule="evenodd" d="M15.386 15.3793C17.916 12.8527 22.0293 12.8793 24.5746 15.4253C27.1213 17.972 27.148 22.0873 24.6173 24.6173C22.0866 27.1473 17.972 27.1213 15.4253 24.5747C14.7089 23.8614 14.1676 22.9917 13.844 22.0339C13.5203 21.0761 13.4231 20.0564 13.56 19.0547C13.5779 18.9232 13.6474 18.8043 13.753 18.724C13.8587 18.6437 13.9919 18.6087 14.1233 18.6267C14.2548 18.6446 14.3737 18.7141 14.454 18.8197C14.5343 18.9254 14.5693 19.0586 14.5513 19.19C14.4351 20.0389 14.5174 20.9032 14.7916 21.7149C15.0659 22.5266 15.5247 23.2636 16.132 23.868C18.2953 26.0307 21.7773 26.0433 23.9106 23.9107C26.0433 21.7773 26.0306 18.2953 23.868 16.132C21.706 13.9707 18.226 13.9567 16.0926 16.0867L16.5913 16.0887C16.657 16.089 16.7219 16.1022 16.7825 16.1276C16.843 16.153 16.898 16.1901 16.9442 16.2368C16.9904 16.2834 17.027 16.3387 17.0518 16.3995C17.0767 16.4603 17.0893 16.5254 17.089 16.591C17.0887 16.6567 17.0754 16.7216 17.05 16.7822C17.0246 16.8427 16.9875 16.8977 16.9409 16.9439C16.8942 16.9901 16.8389 17.0267 16.7782 17.0515C16.7174 17.0764 16.6523 17.089 16.5866 17.0887L14.8893 17.0807C14.7575 17.08 14.6313 17.0273 14.5382 16.934C14.4451 16.8407 14.3925 16.7145 14.392 16.5827L14.3833 14.8867C14.383 14.821 14.3956 14.7559 14.4204 14.6951C14.4452 14.6343 14.4817 14.579 14.5279 14.5323C14.5741 14.4857 14.629 14.4485 14.6895 14.4231C14.75 14.3976 14.815 14.3844 14.8806 14.384C14.9463 14.3837 15.0114 14.3963 15.0722 14.4211C15.133 14.4459 15.1883 14.4824 15.235 14.5286C15.2817 14.5748 15.3188 14.6297 15.3442 14.6902C15.3697 14.7507 15.383 14.8157 15.3833 14.8813L15.386 15.3793ZM19.9993 16.8327C20.1319 16.8327 20.2591 16.8854 20.3529 16.9791C20.4466 17.0729 20.4993 17.2001 20.4993 17.3327V19.7927L22.02 21.3127C22.0678 21.3588 22.1059 21.4139 22.1321 21.4749C22.1583 21.5359 22.1722 21.6015 22.1728 21.6679C22.1734 21.7343 22.1608 21.8001 22.1356 21.8616C22.1105 21.9231 22.0734 21.9789 22.0265 22.0259C21.9796 22.0728 21.9238 22.11 21.8623 22.1352C21.8009 22.1603 21.7351 22.173 21.6687 22.1725C21.6023 22.1719 21.5367 22.1582 21.4757 22.132C21.4147 22.1058 21.3595 22.0677 21.3133 22.02L19.5 20.2067V17.3333C19.5 17.2007 19.5527 17.0736 19.6464 16.9798C19.7402 16.886 19.8674 16.8333 20 16.8333" fill="#F7FFF8"/>
</g>
<defs>
<filter id="filter0_b_29_1011" x="-4" y="-4" width="48" height="48" filterUnits="userSpaceOnUse" color-interpolation-filters="sRGB">
<feFlood flood-opacity="0" result="BackgroundImageFix"/>
<feGaussianBlur in="BackgroundImageFix" stdDeviation="2"/>
<feComposite in2="SourceAlpha" operator="in" result="effect1_backgroundBlur_29_1011"/>
<feBlend mode="normal" in="SourceGraphic" in2="effect1_backgroundBlur_29_1011" result="shape"/>
</filter>
</defs>
</svg>
