<svg width="24" height="25" viewBox="0 0 24 25" fill="none" xmlns="http://www.w3.org/2000/svg">
<g clip-path="url(#clip0_20_274)">
<path d="M9.26752 11.019H3.89495C3.44029 11.019 3.00426 11.1997 2.68277 11.5211C2.36128 11.8426 2.18066 12.2787 2.18066 12.7333V18.0956M2.18066 18.0956H20.8784M2.18066 18.0956V23.3002M20.8784 18.0956V12.7333C20.8784 12.2787 20.6978 11.8426 20.3763 11.5211C20.0548 11.1997 19.6187 11.019 19.1641 11.019H13.7949M20.8784 18.0956V23.3002" stroke="#565E58" stroke-width="1.5" stroke-linecap="round" stroke-linejoin="round"/>
<path d="M8.34877 14.5572H14.7088M16.0116 8.80238L12.1373 12.6801C11.9766 12.8408 11.7586 12.9311 11.5313 12.9311C11.3041 12.9311 11.0861 12.8408 10.9253 12.6801L5.77391 7.52866C5.61322 7.36792 5.52295 7.14995 5.52295 6.92266C5.52295 6.69538 5.61322 6.4774 5.77391 6.31666L9.65162 2.43895C9.81236 2.27826 10.0303 2.18799 10.2576 2.18799C10.4849 2.18799 10.7029 2.27826 10.8636 2.43895L16.0116 7.59038C16.1723 7.75112 16.2626 7.96909 16.2626 8.19638C16.2626 8.42366 16.1723 8.64164 16.0116 8.80238Z" stroke="#565E58" stroke-width="1.5" stroke-linecap="round" stroke-linejoin="round"/>
</g>
<defs>
<clipPath id="clip0_20_274">
<rect width="24" height="24" fill="white" transform="translate(0 0.5)"/>
</clipPath>
</defs>
</svg>
