<svg width="159" height="24" viewBox="0 0 159 24" fill="none" xmlns="http://www.w3.org/2000/svg">
<path d="M1.14773 18V6.36364H3.25568V11.7102H3.39773L7.9375 6.36364H10.5114L6.01136 11.5852L10.5511 18H8.01705L4.54545 13.0114L3.25568 14.5341V18H1.14773ZM11.1804 6.36364H13.5611L16.4077 11.5114H16.5213L19.3679 6.36364H21.7486L17.5156 13.6591V18H15.4134V13.6591L11.1804 6.36364ZM32.5455 10.2898H30.4205C30.3598 9.94129 30.2481 9.63258 30.0852 9.36364C29.9223 9.09091 29.7197 8.85985 29.4773 8.67045C29.2348 8.48106 28.9583 8.33901 28.6477 8.24432C28.3409 8.14583 28.0095 8.09659 27.6534 8.09659C27.0208 8.09659 26.4602 8.25568 25.9716 8.57386C25.483 8.88826 25.1004 9.35038 24.8239 9.96023C24.5473 10.5663 24.4091 11.3068 24.4091 12.1818C24.4091 13.072 24.5473 13.822 24.8239 14.4318C25.1042 15.0379 25.4867 15.4962 25.9716 15.8068C26.4602 16.1136 27.0189 16.267 27.6477 16.267C27.9962 16.267 28.322 16.2216 28.625 16.1307C28.9318 16.036 29.2064 15.8977 29.4489 15.7159C29.6951 15.5341 29.9015 15.3106 30.0682 15.0455C30.2386 14.7803 30.3561 14.4773 30.4205 14.1364L32.5455 14.1477C32.4659 14.7008 32.2936 15.2197 32.0284 15.7045C31.767 16.1894 31.4242 16.6174 31 16.9886C30.5758 17.3561 30.0795 17.6439 29.5114 17.8523C28.9432 18.0568 28.3125 18.1591 27.6193 18.1591C26.5966 18.1591 25.6837 17.9223 24.8807 17.4489C24.0777 16.9754 23.4451 16.2917 22.983 15.3977C22.5208 14.5038 22.2898 13.4318 22.2898 12.1818C22.2898 10.928 22.5227 9.85606 22.9886 8.96591C23.4545 8.07197 24.089 7.38826 24.892 6.91477C25.6951 6.44129 26.6042 6.20455 27.6193 6.20455C28.267 6.20455 28.8693 6.29545 29.4261 6.47727C29.983 6.65909 30.4792 6.92614 30.9148 7.27841C31.3504 7.62689 31.7083 8.05492 31.9886 8.5625C32.2727 9.06629 32.4583 9.64205 32.5455 10.2898ZM46.1491 9.27273L43.0412 18H40.7685L37.6605 9.27273H39.8537L41.8594 15.7557H41.9503L43.9616 9.27273H46.1491ZM51.1392 18.1705C50.2642 18.1705 49.5085 17.9886 48.8722 17.625C48.2396 17.2576 47.7528 16.7386 47.4119 16.0682C47.071 15.3939 46.9006 14.6004 46.9006 13.6875C46.9006 12.7898 47.071 12.0019 47.4119 11.3239C47.7566 10.642 48.2377 10.1117 48.8551 9.73295C49.4725 9.35038 50.1979 9.15909 51.0312 9.15909C51.5691 9.15909 52.0767 9.24621 52.554 9.42045C53.035 9.59091 53.4593 9.85606 53.8267 10.2159C54.1979 10.5758 54.4896 11.0341 54.7017 11.5909C54.9138 12.1439 55.0199 12.803 55.0199 13.5682V14.1989H47.8665V12.8125H53.0483C53.0445 12.4186 52.9593 12.0682 52.7926 11.7614C52.6259 11.4508 52.393 11.2064 52.0938 11.0284C51.7983 10.8504 51.4536 10.7614 51.0597 10.7614C50.6392 10.7614 50.2699 10.8636 49.9517 11.0682C49.6335 11.2689 49.3854 11.5341 49.2074 11.8636C49.0331 12.1894 48.9441 12.5473 48.9403 12.9375V14.1477C48.9403 14.6553 49.0331 15.0909 49.2188 15.4545C49.4044 15.8144 49.6638 16.0909 49.9972 16.2841C50.3305 16.4735 50.7206 16.5682 51.1676 16.5682C51.4669 16.5682 51.7377 16.5265 51.9801 16.4432C52.2225 16.3561 52.4328 16.2292 52.6108 16.0625C52.7888 15.8958 52.9233 15.6894 53.0142 15.4432L54.9347 15.6591C54.8134 16.1667 54.5824 16.6098 54.2415 16.9886C53.9044 17.3636 53.4725 17.6553 52.946 17.8636C52.4195 18.0682 51.8172 18.1705 51.1392 18.1705ZM56.7599 18V9.27273H58.7543V10.7273H58.8452C59.0043 10.2235 59.277 9.83523 59.6634 9.5625C60.0535 9.28598 60.4986 9.14773 60.9986 9.14773C61.1122 9.14773 61.2391 9.15341 61.3793 9.16477C61.5232 9.17235 61.6425 9.18561 61.7372 9.20455V11.0966C61.6501 11.0663 61.5118 11.0398 61.3224 11.017C61.1368 10.9905 60.9569 10.9773 60.7827 10.9773C60.4077 10.9773 60.0705 11.0587 59.7713 11.2216C59.4759 11.3807 59.2429 11.6023 59.0724 11.8864C58.902 12.1705 58.8168 12.4981 58.8168 12.8693V18H56.7599ZM63.1037 18V9.27273H65.1605V18H63.1037ZM64.1378 8.03409C63.812 8.03409 63.5317 7.92614 63.2969 7.71023C63.062 7.49053 62.9446 7.22727 62.9446 6.92045C62.9446 6.60985 63.062 6.34659 63.2969 6.13068C63.5317 5.91098 63.812 5.80114 64.1378 5.80114C64.4673 5.80114 64.7476 5.91098 64.9787 6.13068C65.2135 6.34659 65.331 6.60985 65.331 6.92045C65.331 7.22727 65.2135 7.49053 64.9787 7.71023C64.7476 7.92614 64.4673 8.03409 64.1378 8.03409ZM71.696 9.27273V10.8636H66.5369V9.27273H71.696ZM67.8267 18V8.44886C67.8267 7.86174 67.9479 7.37311 68.1903 6.98295C68.4366 6.5928 68.7661 6.30114 69.179 6.10795C69.5919 5.91477 70.0502 5.81818 70.554 5.81818C70.91 5.81818 71.2263 5.84659 71.5028 5.90341C71.7794 5.96023 71.9839 6.01136 72.1165 6.05682L71.7074 7.64773C71.6203 7.62121 71.5104 7.5947 71.3778 7.56818C71.2453 7.53788 71.0975 7.52273 70.9347 7.52273C70.5521 7.52273 70.2813 7.61553 70.1222 7.80114C69.9669 7.98295 69.8892 8.24432 69.8892 8.58523V18H67.8267ZM73.3068 18V9.27273H75.3636V18H73.3068ZM74.3409 8.03409C74.0152 8.03409 73.7348 7.92614 73.5 7.71023C73.2652 7.49053 73.1477 7.22727 73.1477 6.92045C73.1477 6.60985 73.2652 6.34659 73.5 6.13068C73.7348 5.91098 74.0152 5.80114 74.3409 5.80114C74.6705 5.80114 74.9508 5.91098 75.1818 6.13068C75.4167 6.34659 75.5341 6.60985 75.5341 6.92045C75.5341 7.22727 75.4167 7.49053 75.1818 7.71023C74.9508 7.92614 74.6705 8.03409 74.3409 8.03409ZM81.2855 18.1705C80.4143 18.1705 79.6662 17.9792 79.0412 17.5966C78.42 17.214 77.9408 16.6856 77.6037 16.0114C77.2704 15.3333 77.1037 14.553 77.1037 13.6705C77.1037 12.7841 77.2741 12.0019 77.6151 11.3239C77.956 10.642 78.437 10.1117 79.0582 9.73295C79.6832 9.35038 80.4219 9.15909 81.2741 9.15909C81.9825 9.15909 82.6094 9.28977 83.1548 9.55114C83.7041 9.80871 84.1416 10.1742 84.4673 10.6477C84.7931 11.1174 84.9787 11.6667 85.0241 12.2955H83.0582C82.9787 11.875 82.7893 11.5246 82.4901 11.2443C82.1946 10.9602 81.7988 10.8182 81.3026 10.8182C80.8821 10.8182 80.5128 10.9318 80.1946 11.1591C79.8764 11.3826 79.6283 11.7045 79.4503 12.125C79.276 12.5455 79.1889 13.0492 79.1889 13.6364C79.1889 14.2311 79.276 14.7424 79.4503 15.1705C79.6245 15.5947 79.8688 15.9223 80.1832 16.1534C80.5014 16.3807 80.8745 16.4943 81.3026 16.4943C81.6056 16.4943 81.8764 16.4375 82.1151 16.3239C82.3575 16.2064 82.5601 16.0379 82.723 15.8182C82.8859 15.5985 82.9976 15.3314 83.0582 15.017H85.0241C84.9749 15.6345 84.7931 16.1818 84.4787 16.6591C84.1643 17.1326 83.7363 17.5038 83.1946 17.7727C82.6529 18.0379 82.0166 18.1705 81.2855 18.1705ZM89.2244 18.1761C88.6714 18.1761 88.1733 18.0777 87.7301 17.8807C87.2907 17.6799 86.9422 17.3845 86.6847 16.9943C86.4309 16.6042 86.304 16.1231 86.304 15.5511C86.304 15.0587 86.3949 14.6515 86.5767 14.3295C86.7585 14.0076 87.0066 13.75 87.321 13.5568C87.6354 13.3636 87.9896 13.2178 88.3835 13.1193C88.7813 13.017 89.1922 12.9432 89.6165 12.8977C90.1278 12.8447 90.5426 12.7973 90.8608 12.7557C91.179 12.7102 91.41 12.642 91.554 12.5511C91.7017 12.4564 91.7756 12.3106 91.7756 12.1136V12.0795C91.7756 11.6515 91.6487 11.3201 91.3949 11.0852C91.1411 10.8504 90.7756 10.733 90.2983 10.733C89.7945 10.733 89.3949 10.8428 89.0994 11.0625C88.8078 11.2822 88.6108 11.5417 88.5085 11.8409L86.5881 11.5682C86.7396 11.0379 86.9896 10.5947 87.3381 10.2386C87.6866 9.87879 88.1127 9.60985 88.6165 9.43182C89.1203 9.25 89.6771 9.15909 90.2869 9.15909C90.7074 9.15909 91.1259 9.20833 91.5426 9.30682C91.9593 9.4053 92.34 9.56818 92.6847 9.79545C93.0294 10.0189 93.3059 10.3239 93.5142 10.7102C93.7263 11.0966 93.8324 11.5795 93.8324 12.1591V18H91.8551V16.8011H91.7869C91.6619 17.0436 91.4858 17.2708 91.2585 17.483C91.035 17.6913 90.7528 17.8598 90.4119 17.9886C90.0748 18.1136 89.679 18.1761 89.2244 18.1761ZM89.7585 16.6648C90.1714 16.6648 90.5294 16.5833 90.8324 16.4205C91.1354 16.2538 91.3684 16.0341 91.5312 15.7614C91.6979 15.4886 91.7812 15.1913 91.7812 14.8693V13.8409C91.7169 13.8939 91.607 13.9432 91.4517 13.9886C91.3002 14.0341 91.1297 14.0739 90.9403 14.108C90.7509 14.142 90.5634 14.1723 90.3778 14.1989C90.1922 14.2254 90.0313 14.2481 89.8949 14.267C89.5881 14.3087 89.3134 14.3769 89.071 14.4716C88.8286 14.5663 88.6373 14.6989 88.4972 14.8693C88.357 15.036 88.2869 15.2519 88.2869 15.517C88.2869 15.8958 88.4252 16.1818 88.7017 16.375C88.9782 16.5682 89.3305 16.6648 89.7585 16.6648ZM100.259 9.27273V10.8636H95.2415V9.27273H100.259ZM96.4801 7.18182H98.5369V15.375C98.5369 15.6515 98.5786 15.8636 98.6619 16.0114C98.7491 16.1553 98.8627 16.2538 99.0028 16.3068C99.143 16.3598 99.2983 16.3864 99.4688 16.3864C99.5975 16.3864 99.715 16.3769 99.821 16.358C99.9309 16.339 100.014 16.322 100.071 16.3068L100.418 17.9148C100.308 17.9527 100.151 17.9943 99.946 18.0398C99.7453 18.0852 99.4991 18.1117 99.2074 18.1193C98.6922 18.1345 98.2282 18.0568 97.8153 17.8864C97.4025 17.7121 97.0748 17.4432 96.8324 17.0795C96.5938 16.7159 96.4763 16.2614 96.4801 15.7159V7.18182ZM101.979 18V9.27273H104.036V18H101.979ZM103.013 8.03409C102.687 8.03409 102.407 7.92614 102.172 7.71023C101.937 7.49053 101.82 7.22727 101.82 6.92045C101.82 6.60985 101.937 6.34659 102.172 6.13068C102.407 5.91098 102.687 5.80114 103.013 5.80114C103.342 5.80114 103.623 5.91098 103.854 6.13068C104.089 6.34659 104.206 6.60985 104.206 6.92045C104.206 7.22727 104.089 7.49053 103.854 7.71023C103.623 7.92614 103.342 8.03409 103.013 8.03409ZM109.957 18.1705C109.105 18.1705 108.366 17.983 107.741 17.608C107.116 17.233 106.632 16.7083 106.287 16.0341C105.946 15.3598 105.776 14.572 105.776 13.6705C105.776 12.7689 105.946 11.9792 106.287 11.3011C106.632 10.6231 107.116 10.0966 107.741 9.72159C108.366 9.34659 109.105 9.15909 109.957 9.15909C110.81 9.15909 111.548 9.34659 112.173 9.72159C112.798 10.0966 113.281 10.6231 113.622 11.3011C113.967 11.9792 114.139 12.7689 114.139 13.6705C114.139 14.572 113.967 15.3598 113.622 16.0341C113.281 16.7083 112.798 17.233 112.173 17.608C111.548 17.983 110.81 18.1705 109.957 18.1705ZM109.969 16.5227C110.431 16.5227 110.817 16.3958 111.128 16.142C111.438 15.8845 111.67 15.5398 111.821 15.108C111.976 14.6761 112.054 14.1951 112.054 13.6648C112.054 13.1307 111.976 12.6477 111.821 12.2159C111.67 11.7803 111.438 11.4337 111.128 11.1761C110.817 10.9186 110.431 10.7898 109.969 10.7898C109.495 10.7898 109.101 10.9186 108.787 11.1761C108.476 11.4337 108.243 11.7803 108.088 12.2159C107.937 12.6477 107.861 13.1307 107.861 13.6648C107.861 14.1951 107.937 14.6761 108.088 15.108C108.243 15.5398 108.476 15.8845 108.787 16.142C109.101 16.3958 109.495 16.5227 109.969 16.5227ZM117.942 12.8864V18H115.885V9.27273H117.851V10.7557H117.953C118.154 10.267 118.474 9.87879 118.913 9.59091C119.357 9.30303 119.904 9.15909 120.555 9.15909C121.158 9.15909 121.682 9.28788 122.129 9.54545C122.58 9.80303 122.929 10.1761 123.175 10.6648C123.425 11.1534 123.548 11.7462 123.544 12.4432V18H121.487V12.7614C121.487 12.178 121.336 11.7216 121.033 11.392C120.733 11.0625 120.319 10.8977 119.788 10.8977C119.429 10.8977 119.108 10.9773 118.828 11.1364C118.552 11.2917 118.334 11.517 118.175 11.8125C118.019 12.108 117.942 12.4659 117.942 12.8864Z" fill="#2ECC40"/>
<path d="M155.781 12.5306L149.031 19.2806C148.89 19.4213 148.699 19.5003 148.5 19.5003C148.301 19.5003 148.11 19.4213 147.969 19.2806C147.829 19.1398 147.75 18.949 147.75 18.7499C147.75 18.5509 147.829 18.36 147.969 18.2193L153.44 12.7499H138.75C138.551 12.7499 138.36 12.6709 138.22 12.5303C138.079 12.3896 138 12.1988 138 11.9999C138 11.801 138.079 11.6103 138.22 11.4696C138.36 11.3289 138.551 11.2499 138.75 11.2499H153.44L147.969 5.78055C147.829 5.63982 147.75 5.44895 147.75 5.24993C147.75 5.05091 147.829 4.86003 147.969 4.7193C148.11 4.57857 148.301 4.49951 148.5 4.49951C148.699 4.49951 148.89 4.57857 149.031 4.7193L155.781 11.4693C155.85 11.539 155.906 11.6217 155.943 11.7127C155.981 11.8038 156.001 11.9014 156.001 11.9999C156.001 12.0985 155.981 12.1961 155.943 12.2871C155.906 12.3782 155.85 12.4609 155.781 12.5306Z" fill="#2ECC40"/>
</svg>
