<svg width="20" height="20" viewBox="0 0 20 20" fill="none" xmlns="http://www.w3.org/2000/svg">
<path d="M19.6486 18.3751C18.2208 15.9067 16.0205 14.1367 13.4527 13.2976C14.7229 12.5415 15.7097 11.3893 16.2617 10.018C16.8136 8.64678 16.9002 7.13224 16.5081 5.70701C16.116 4.28178 15.2668 3.02467 14.0911 2.12873C12.9154 1.23279 11.4781 0.747559 9.99989 0.747559C8.5217 0.747559 7.08438 1.23279 5.90866 2.12873C4.73294 3.02467 3.88382 4.28178 3.49171 5.70701C3.09959 7.13224 3.18616 8.64678 3.73813 10.018C4.29009 11.3893 5.27692 12.5415 6.54708 13.2976C3.97926 14.1357 1.77895 15.9057 0.351138 18.3751C0.298777 18.4605 0.264047 18.5555 0.248996 18.6545C0.233945 18.7535 0.238878 18.8545 0.263504 18.9516C0.28813 19.0487 0.331951 19.1399 0.39238 19.2197C0.452809 19.2996 0.528623 19.3666 0.615348 19.4167C0.702074 19.4667 0.797954 19.499 0.897332 19.5114C0.996711 19.5238 1.09757 19.5163 1.19397 19.4891C1.29037 19.4619 1.38034 19.4157 1.45859 19.3532C1.53684 19.2907 1.60178 19.2131 1.64958 19.1251C3.41583 16.0726 6.5377 14.2501 9.99989 14.2501C13.4621 14.2501 16.584 16.0726 18.3502 19.1251C18.398 19.2131 18.4629 19.2907 18.5412 19.3532C18.6194 19.4157 18.7094 19.4619 18.8058 19.4891C18.9022 19.5163 19.0031 19.5238 19.1024 19.5114C19.2018 19.499 19.2977 19.4667 19.3844 19.4167C19.4712 19.3666 19.547 19.2996 19.6074 19.2197C19.6678 19.1399 19.7116 19.0487 19.7363 18.9516C19.7609 18.8545 19.7658 18.7535 19.7508 18.6545C19.7357 18.5555 19.701 18.4605 19.6486 18.3751ZM4.74989 7.50011C4.74989 6.46176 5.05779 5.44672 5.63467 4.58337C6.21155 3.72001 7.03149 3.0471 7.9908 2.64974C8.95011 2.25238 10.0057 2.14841 11.0241 2.35099C12.0425 2.55356 12.978 3.05357 13.7122 3.7878C14.4464 4.52202 14.9464 5.45748 15.149 6.47589C15.3516 7.49429 15.2476 8.54989 14.8503 9.5092C14.4529 10.4685 13.78 11.2884 12.9166 11.8653C12.0533 12.4422 11.0382 12.7501 9.99989 12.7501C8.60796 12.7486 7.27347 12.195 6.28922 11.2108C5.30498 10.2265 4.75138 8.89204 4.74989 7.50011Z" fill="#565E58"/>
</svg>
