<svg width="40" height="40" viewBox="0 0 40 40" fill="none" xmlns="http://www.w3.org/2000/svg">
<g filter="url(#filter0_b_29_1005)">
<rect width="40" height="40" rx="20" fill="#565E58" fill-opacity="0.2"/>
<rect x="4" y="4" width="32" height="32" rx="16" fill="#353F37"/>
<path d="M20 14.9311V20.0001C20 20.1161 19.9539 20.2274 19.8719 20.3095C19.7898 20.3915 19.6785 20.4376 19.5625 20.4376C19.4465 20.4376 19.3352 20.3915 19.2531 20.3095C19.1711 20.2274 19.125 20.1161 19.125 20.0001V14.9311L18.122 15.9346C18.0814 15.9753 18.0331 16.0075 17.98 16.0295C17.9269 16.0515 17.87 16.0628 17.8125 16.0628C17.6964 16.0628 17.5851 16.0167 17.503 15.9346C17.4623 15.894 17.4301 15.8457 17.4081 15.7926C17.3861 15.7395 17.3748 15.6826 17.3748 15.6251C17.3748 15.509 17.4209 15.3977 17.503 15.3156L19.253 13.5656C19.2936 13.5249 19.3419 13.4926 19.395 13.4706C19.4481 13.4486 19.505 13.4373 19.5625 13.4373C19.62 13.4373 19.6769 13.4486 19.73 13.4706C19.7831 13.4926 19.8314 13.5249 19.872 13.5656L21.622 15.3156C21.7041 15.3977 21.7502 15.509 21.7502 15.6251C21.7502 15.7412 21.7041 15.8525 21.622 15.9346C21.5399 16.0167 21.4286 16.0628 21.3125 16.0628C21.1964 16.0628 21.0851 16.0167 21.003 15.9346L20 14.9311ZM23.5 19.7606V18.2501C23.5 18.018 23.4078 17.7955 23.2437 17.6314C23.0796 17.4673 22.8571 17.3751 22.625 17.3751H21.75C21.634 17.3751 21.5227 17.4212 21.4406 17.5032C21.3586 17.5853 21.3125 17.6966 21.3125 17.8126C21.3125 17.9286 21.3586 18.0399 21.4406 18.122C21.5227 18.204 21.634 18.2501 21.75 18.2501H22.625V22.647C22.3641 22.3804 22.0149 22.2183 21.6429 22.191C21.2709 22.1637 20.9018 22.2731 20.6048 22.4986C20.3077 22.7242 20.1032 23.0504 20.0296 23.416C19.956 23.7816 20.0184 24.1616 20.2051 24.4845L20.2182 24.5053L21.4355 26.3646C21.4991 26.4617 21.5986 26.5296 21.7122 26.5534C21.8257 26.5771 21.9441 26.5548 22.0412 26.4912C22.1383 26.4277 22.2062 26.3282 22.2299 26.2146C22.2537 26.101 22.2313 25.9827 22.1678 25.8856L20.9576 24.0377C20.8718 23.8862 20.8497 23.7068 20.8961 23.539C20.9426 23.3712 21.0538 23.2288 21.2053 23.143C21.3568 23.0572 21.5362 23.0351 21.704 23.0816C21.8717 23.128 22.0142 23.2392 22.1 23.3907C22.1038 23.3978 22.1082 23.4049 22.1126 23.4115L22.6966 24.3035C22.7483 24.3822 22.8239 24.4422 22.9124 24.4745C23.0008 24.5068 23.0973 24.5097 23.1875 24.4828C23.2777 24.4559 23.3569 24.4006 23.4132 24.3252C23.4695 24.2497 23.4999 24.1581 23.5 24.0639V20.8751C23.9124 21.2568 24.2417 21.7194 24.4675 22.2339C24.6933 22.7485 24.8108 23.304 24.8125 23.866V26.1251C24.8125 26.2411 24.8586 26.3524 24.9406 26.4345C25.0227 26.5165 25.134 26.5626 25.25 26.5626C25.366 26.5626 25.4773 26.5165 25.5594 26.4345C25.6414 26.3524 25.6875 26.2411 25.6875 26.1251V23.8638C25.685 23.0533 25.4844 22.2558 25.1031 21.5406C24.7219 20.8254 24.1715 20.2143 23.5 19.7606ZM17.375 17.3751H16.5C16.2679 17.3751 16.0454 17.4673 15.8813 17.6314C15.7172 17.7955 15.625 18.018 15.625 18.2501V23.9376C15.625 24.0536 15.6711 24.1649 15.7531 24.247C15.8352 24.329 15.9465 24.3751 16.0625 24.3751C16.1785 24.3751 16.2898 24.329 16.3719 24.247C16.4539 24.1649 16.5 24.0536 16.5 23.9376V18.2501H17.375C17.491 18.2501 17.6023 18.204 17.6844 18.122C17.7664 18.0399 17.8125 17.9286 17.8125 17.8126C17.8125 17.6966 17.7664 17.5853 17.6844 17.5032C17.6023 17.4212 17.491 17.3751 17.375 17.3751Z" fill="#F7FFF8"/>
</g>
<defs>
<filter id="filter0_b_29_1005" x="-4" y="-4" width="48" height="48" filterUnits="userSpaceOnUse" color-interpolation-filters="sRGB">
<feFlood flood-opacity="0" result="BackgroundImageFix"/>
<feGaussianBlur in="BackgroundImageFix" stdDeviation="2"/>
<feComposite in2="SourceAlpha" operator="in" result="effect1_backgroundBlur_29_1005"/>
<feBlend mode="normal" in="SourceGraphic" in2="effect1_backgroundBlur_29_1005" result="shape"/>
</filter>
</defs>
</svg>
